<svg id="visual" viewBox="0 0 1920 1080" width="1920" height="1080" xmlns="http://www.w3.org/2000/svg" xmlns:xlink="http://www.w3.org/1999/xlink" version="1.1"><rect x="0" y="0" width="1920" height="1080" fill="#D5573B"></rect><path d="M0 701L274 748L549 725L823 669L1097 762L1371 686L1646 698L1920 733L1920 1081L1646 1081L1371 1081L1097 1081L823 1081L549 1081L274 1081L0 1081Z" fill="#cc5237"></path><path d="M0 776L274 713L549 759L823 810L1097 751L1371 713L1646 783L1920 759L1920 1081L1646 1081L1371 1081L1097 1081L823 1081L549 1081L274 1081L0 1081Z" fill="#c64e33"></path><path d="M0 833L274 802L549 887L823 825L1097 880L1371 861L1646 886L1920 783L1920 1081L1646 1081L1371 1081L1097 1081L823 1081L549 1081L274 1081L0 1081Z" fill="#c14a30"></path><path d="M0 904L274 923L549 970L823 864L1097 933L1371 867L1646 879L1920 948L1920 1081L1646 1081L1371 1081L1097 1081L823 1081L549 1081L274 1081L0 1081Z" fill="#bc462c"></path><path d="M0 954L274 954L549 971L823 975L1097 1031L1371 1019L1646 1002L1920 947L1920 1081L1646 1081L1371 1081L1097 1081L823 1081L549 1081L274 1081L0 1081Z" fill="#b74329"></path></svg>