<svg xmlns="http://www.w3.org/2000/svg" xmlns:xlink="http://www.w3.org/1999/xlink" version="1.1" x="0px" y="0px" viewBox="0 0 1920 1080" style="enable-background:new 0 0 1920 1080;" xml:space="preserve">
<style type="text/css">
	.st0{opacity:0.1;fill:#FFBE55;}
	.st1{fill:#FFBE55;}
	.st2{opacity:0.1;}
	.st3{fill:#FAB9AF;}
	.st4{fill:#0B4870;}
	.st5{fill:#FCD2B1;}
	.st6{fill:#FFE3CA;}
	.st7{fill:#0E538C;}
	.st8{fill:#2A94F4;}
</style>
<g id="Background">
	<ellipse class="st0" cx="935.15" cy="993.85" rx="580.21" ry="46.91"/>
	<path class="st0" d="M1544.17,642.63c0,118.9-89.66,325.25-89.66,325.25L372.74,979.49c-61.32-97.6-96.78-213.09-96.78-336.86   c0-350.21,283.9-634.1,634.1-634.1S1544.17,292.42,1544.17,642.63z"/>
</g>
<g id="Object">
	<path class="st1" d="M1489.81,833.34H380.5V178.7c0-18.31,14.85-33.16,33.16-33.16h1042.99c18.31,0,33.16,14.85,33.16,33.16V833.34   z"/>
	<polygon class="st1" points="1414.22,833.34 455.84,833.34 421.37,599.98 1449.42,599.98  "/>
	<polygon class="st2" points="1414.22,833.34 455.84,833.34 421.37,599.98 1449.42,599.98  "/>
	<path class="st3" d="M1460.39,253.8c0,0-18.68-20.57-22.57-18.95c-3.89,1.62-13.93,23.97-13.93,23.97l22.97,17.34"/>
	<path class="st4" d="M1274.65,215.58c0,0-18.88-94.44,21.29-103.51s65.52-16.05,90.3,8.35c0,0,51.48-15.47,61.9,40.89   s7.18,100.42-29.75,115.32s-56.99,19.54-56.99,19.54L1274.65,215.58z"/>
	<path class="st5" d="M1302.38,277.57c0,0,0,19.45-27.63,26.61c0,0-9.21,20.07,27.63,28.46c36.85,8.39,58.34,8.04,61.41-14.3   c3.07-22.35,12.28-45.89,12.28-45.89S1317.73,243.8,1302.38,277.57z"/>
	<path class="st1" d="M1414.34,833.34h89.49l118.39-326.22c5.57-15.34,6.26-32.74,1.93-48.68v0   c-19.47-71.79-73.47-120.11-134.22-120.11h0L1414.34,833.34z"/>
	<path class="st1" d="M456.46,833.34h-89.49L248.58,507.12c-5.57-15.34-6.26-32.74-1.93-48.68l0,0   c19.47-71.79,73.47-120.11,134.22-120.11h0L456.46,833.34z"/>
	<path class="st6" d="M261.24,352.5c0,0-31.42-13.55-44.73-27.16c-6.35-6.5-9.58-22.52-11.23-37.49   c-2.22-20.2-14.67-37.84-32.94-46.73l0,0c-5.23-2.54-11.32,0.98-11.76,6.77c-1,13.16,0.38,37,15.41,68.73   c10.24,21.62-13.93,54.71,16.47,57.62s67.68,20.3,67.68,20.3L261.24,352.5z"/>
	<path class="st6" d="M227.55,367.15c0,0-31.42-13.55-44.73-27.16c-6.35-6.5-9.58-22.52-11.23-37.49   c-2.22-20.2-14.67-37.84-32.94-46.73l0,0c-5.23-2.54-11.32,0.98-11.76,6.77c-1,13.16,0.38,37,15.41,68.73   c10.24,21.62-13.93,54.71,16.47,57.62c30.4,2.91,67.68,20.3,67.68,20.3L227.55,367.15z"/>
	<path class="st4" d="M216.51,325.34l-13.73,26.27l676.89,151.48l-4.09-91.43c0,0-339.81-55.95-375.29-55.95   S216.51,325.34,216.51,325.34z"/>
	<path class="st7" d="M890.58,440.31c0,0-334.35-51.86-421.69-58.68c-87.34-6.82-274.25-32.17-274.25-32.17l-10.02,45.09   c0,0,176.45,64.87,252.88,77.16s267.52,170.66,560.89,128.28L890.58,440.31z"/>
	<path class="st8" d="M1639.8,410.29c38.21-62.78-179.4-156.49-179.4-156.49l-16.35,27.02c0,0,87.05,102.64,108.42,117.19   C1573.82,412.56,1622.65,438.46,1639.8,410.29z"/>
	<path class="st8" d="M1420.08,449.87c0,0,179.02-14.15,206.87-28.91l-39.02-48.88c0,0-91.43-1.36-121.46-20.47   c-30.02-19.11-83.25-38.21-83.25-38.21L1420.08,449.87z"/>
	<path class="st8" d="M1051.9,275.04c-16.56-71.6,218.75-92.15,218.75-92.15l4.67,33.31c0,0-111.79,67.52-136.64,74.62   C1113.82,297.92,1059.33,307.17,1051.9,275.04z"/>
	<path class="st8" d="M1248.06,381.63c0,0-165.51-69.67-187.32-92.43l52.39-34.15c0,0,88.44,6.16,121.74,18.72   c43.54,16.42,48.85,53.81,48.85,53.81L1248.06,381.63z"/>
	<path class="st8" d="M1253.82,283.63c0,0-161.27,111.65-378.25,128.02c0,0-19.89,187.31,0,199.24   c6.82,4.09,342.95,47.22,530.86-129.65c23.2-21.84,58.68-92.8,58.68-92.8l-81.88-75.06l-18.42-1.42l-21.5,12.42   c-16.01,9.5-49.58-1.67-56.51-18.95l0.28-6.11L1253.82,283.63z"/>
	<path class="st6" d="M1411.89,261.11c0,0-39.92,40.68-69.6,38.29c-29.68-2.38-40.38-0.34-58.57-23.88   c-18.19-23.54-5.07-107.32,5.74-120.7c14.27-17.65,36.46-25.67,62.05,12.2c25.59,37.87,52.2,9.21,60.39,29.68   s-10.66,27.4-4.52,34.56c0,0,10.75-15.34,19.54-11.49C1435.71,223.65,1432.64,261.11,1411.89,261.11z"/>
	<polygon class="st1" points="1452.35,983.46 1433.91,983.46 1392.11,833.34 1432.27,833.34  "/>
	<polygon class="st1" points="409.59,983.46 428.03,983.46 469.83,833.34 429.67,833.34  "/>
</g>
</svg>