<svg xmlns="http://www.w3.org/2000/svg" xmlns:xlink="http://www.w3.org/1999/xlink" version="1.1" x="0px" y="0px" viewBox="0 0 1080 1080" style="enable-background:new 0 0 1080 1080;" xml:space="preserve">
<style type="text/css">
	.st0{opacity:0.5;fill:#FFBE55;}
	.st1{opacity:0.3;fill:#FFBE55;}
	.st2{fill:#B2B2B2;}
	.st3{fill:#8E8E8E;}
	.st4{fill:#0E538C;}
	.st5{fill:#2A94F4;}
	.st6{fill:#0B4870;}
	.st7{fill:#D3D3D3;}
	.st8{fill:#FFBE55;}
	.st9{fill:none;stroke:#0E538C;stroke-width:6;stroke-linecap:round;stroke-miterlimit:10;}
	.st10{opacity:0.5;}
</style>
<g id="Layer_6">
	<path class="st0" d="M489,265c-29.8,24.6-60.3,49.8-98,60c-65.9,17.8-90.9-27.2-147-17c-70.5,12.8-136.7,102.9-133,188   c3.7,85.8,78.1,154.6,135,183c41,20.5,76.2,21.5,104,59c23,31.1,11.2,46.9,34,81c2,2.9,48.5,70.1,124,68   c62.6-1.7,102.1-49.8,107-56c42.3-53.2,11.6-93.7,47-141c42.8-57.2,106.1-22.5,164-75c59-53.5,70.7-159.7,39-238   c-28.8-71.2-86-101.3-167-144c-48.2-25.4-94.2-48.8-137-32C534.7,211.3,535.4,226.7,489,265z"/>
	<path class="st1" d="M455.9,356.5c-15.5,31.1-31.3,63-58.5,85.2c-47.6,38.8-84.6,10.9-127,39.9c-53.2,36.4-74.6,134.7-40.4,203.2   c34.5,69.1,120.8,98.4,178,100.9c41.2,1.8,70.5-10.3,107.1,10.4c30.3,17.1,26.4,34.5,57.6,54.1c2.7,1.7,65.5,39.8,126.8,10.4   c50.8-24.4,65.6-78.3,67.4-85.2C782,716.1,742,694,753.8,642.2c14.2-62.7,78.9-57.4,107.2-121.7c28.9-65.6-0.5-157.1-55.2-209.8   c-49.7-47.9-107.8-51.7-190-57.1c-48.9-3.2-95.3-5.6-124.3,23.9C473.8,295.6,480,308,455.9,356.5z"/>
</g>
<g id="other:_metal_parts">
	<g>
		<path class="st2" d="M377.6,647.5c-0.9,13.9,4,26.2,7.9,36.2c4.9,12.3,9.3,23.4,16.8,25.5c7.9,2.2,16-6.4,17.2-16.5    c1-9-4.1-14.4-8.4-27.5c-9.6-29.2,0.7-49-5.2-54.1C399.3,605.5,379.3,622.3,377.6,647.5z"/>
		<path class="st3" d="M394.4,553.5c6-1.5,16.1,14.4,20.7,27c6.9,18.8,0.1,26.5,4.4,58c3,22.1,7.4,26.1,6,39.2    c-1.7,15.8-10.6,32.4-17.4,30.1C389.8,701.7,377.4,557.7,394.4,553.5z"/>
	</g>
	<g>
		<path class="st2" d="M402,377c-0.6-11.6,3.6-21.9,7.1-30.2c4.2-10.2,8-19.4,14.3-21.1c6.6-1.8,13.3,5.6,14.1,14    c0.7,7.6-3.6,12-7.4,22.9c-8.4,24.3,0,41-5.1,45.2C419.6,412.4,403.1,398.1,402,377z"/>
		<path class="st3" d="M414.8,455.7c5,1.3,13.6-11.8,17.6-22.3c6-15.6,0.4-22.1,4.4-48.4c2.8-18.4,6.5-21.8,5.5-32.7    c-1.2-13.2-8.4-27.2-14.1-25.3C412.9,331.9,400.7,452.1,414.8,455.7z"/>
	</g>
</g>
<g id="strap">
	<path class="st4" d="M703.7,720c-3.9,8.9-27,45.4-27,45.4l-39.1,28.2l-92.5-37c2.8-9.8,5.1-23.9-2.3-33.3   c-7.6-9.7-20.6-8.4-21.4-13.7c-0.5-3,3.3-5.9,9.4-9l71.8,28.7l39.1-28.2c0,0,23.1-36.5,27-45.4c42.8-97.2,43.5-230.9,7.4-326   C744.8,418,757.4,597.9,703.7,720z"/>
	<path class="st5" d="M668.6,655.7c-3.9,8.9-27,45.4-27,45.4l-39.1,28.2l-71.8-28.7c9.4-4.9,24-10.7,36.3-19   c27-18.3,37.6-45.9,46.7-69.7c18-46.8,28.4-128.4-8-191.7c-7-12.1-22.4-35.3-24.7-68c-2.1-30.2,9-40.4,11.3-42.3   c6-5.1,12.8-6.5,20.3-8c15.9-3.3,24.3-5,37.3,1c9.4,7.5,18.1,16.5,26,26.7C712.2,424.8,711.4,558.5,668.6,655.7z"/>
	<path class="st6" d="M668.6,655.7c-69.7,143.8,33.4,67.7,33.4,67.7c-60,116.1-131,36.3-131,36.3l-40.3-59c9.4-4.9,24-10.7,36.3-19   c27-18.3,37.6-45.9,46.7-69.7c18-46.8,28.4-128.4-8-191.7c-7-12.1-22.4-35.3-24.7-68c-2.1-30.2,9-40.4,11.3-42.3   c6-5.1,12.8-6.5,20.3-8c15.9-3.3,24.3-5,37.3,1c9.4,7.5,18.1,16.5,26,26.7C712.2,424.8,715,560.1,668.6,655.7z"/>
	<path class="st4" d="M422,353c11.9-25.9,34.3-38.3,45-44c5.7-3.1,14.1-7,25-10h142.8c-6,0.2-6.8-0.3-17.2,4   c-33.5,13.9-29.2,53-55.6,77c-42.2,38.4-138.8,16.5-145-10C416.1,366,418,361.6,422,353z"/>
	<path class="st4" d="M565,680c-0.3,20.9-5.6,29.4,0,47c7.2,22.9,30.3,53.8,65,54c33.2,0.2,53.8-27.8,56-31c-3.1,6.7-8.6,16.2-18,25   c-18.7,17.6-40.6,21.1-49,22H486.1c-4.3-2-70.2-28-87.6-125c-11.2-62.7,72.9-117.5,116.5-101C547,583.1,565.7,639.1,565,680z"/>
</g>
<g id="face">
	<g>
		<path class="st2" d="M529,664c-4.9,11.1-2.7,22.1-1,31c2.1,10.9,4.1,20.8,12,24c8.4,3.4,19.9-2.1,24-10c3.7-7.1-0.7-12.5-2-24    c-2.9-25.6,14.3-39.7,9-45C565.2,634.2,537.9,643.9,529,664z"/>
		<path class="st3" d="M574,591c7.2,0,14.3,14.9,16,26c2.6,16.6-7.2,21.5-11,48c-2.7,18.5,1.2,22.7-4,33c-6.3,12.5-20.9,24.2-28,21    C528,710.4,553.6,591,574,591z"/>
	</g>
	<g>
		<path class="st3" d="M600.3,450.7c5.1,0,10.2-14.9,11.4-26c1.9-16.6-5.1-21.5-7.9-48c-1.9-18.5,0.9-22.7-2.9-33    c-4.5-12.5-14.9-24.2-20-21C567.4,331.3,585.7,450.7,600.3,450.7z"/>
		<path class="st2" d="M568.1,377.7c-3.5-11.1-2-22.1-0.7-31c1.5-10.9,2.9-20.8,8.6-24c6-3.4,14.2,2.1,17.1,10    c2.6,7.1-0.5,12.5-1.4,24c-2,25.6,10.2,39.7,6.4,45C594,407.6,574.5,397.9,568.1,377.7z"/>
	</g>
	<g>
		<ellipse class="st2" cx="486.1" cy="510.3" rx="161.3" ry="174"/>
		<ellipse class="st7" cx="478.2" cy="510.3" rx="161.3" ry="174"/>
	</g>
	<g>
		<path class="st8" d="M617.6,514c0,82.3-62.8,149-140.4,149c-29.1,0-56.3-9.4-78.9-25.5c-37.6-26.8-62.4-72.1-62.4-123.5    c0-82.3,63.8-149,141.4-149c24.1,0,46.7,6.4,66.5,17.8C587.7,407.9,617.6,457.2,617.6,514z"/>
		<path class="st8" d="M347.8,522c0,51.4,24.9,96.7,62.4,123.5c-44.1-25.2-74.2-74.5-74.2-131c0-82.3,63.9-149,141.4-149    c29,0,55.9,9.3,78.3,25.3c-19.8-11.3-42.4-17.8-66.5-17.8C411.7,373,347.8,439.7,347.8,522z"/>
	</g>
	<g>
		<circle class="st4" cx="464" cy="517" r="10"/>
		<line class="st9" x1="464" y1="517" x2="571" y2="469"/>
		<line class="st9" x1="465.1" y1="518.2" x2="411.8" y2="485.9"/>
	</g>
	<g class="st10">
		<circle class="st4" cx="468" cy="521.1" r="10"/>
		<line class="st9" x1="468" y1="521.1" x2="575" y2="473.1"/>
		<line class="st9" x1="469.1" y1="522.3" x2="415.9" y2="490"/>
	</g>
</g>
<g id="Layer_5">
	<path class="st5" d="M688.3,444.3c14.2-5.4,25.3-12.2,33.2-18l-3.5-12c0.9-0.2,2.1-0.2,3.5,0c10.8,2,17.5,23.3,16.1,33.3   c-2.6,19-40.1,33.7-92,36.9l-7.1-31.3C638.5,453.3,670.3,451.2,688.3,444.3z"/>
	<path class="st5" d="M697.2,505.4c15-2.4,27.2-6.8,36.2-10.8l-1-12.4c0.9,0,2.1,0.2,3.4,0.7c10.2,4.2,12.4,26.4,9,35.8   c-6.5,18.1-47.1,24.8-98.6,17.4l1.4-32.1C647.6,504,678.2,508.4,697.2,505.4z"/>
</g>
</svg>